<svg xmlns="http://www.w3.org/2000/svg" viewBox="0 0 64 64" role="img" aria-label="bigdick.fyi icon">
  <rect width="64" height="64" rx="10" fill="#fffdf5"/>
  <path fill="#ff3ba7" d="M7 7h50v50H7z"/>
  <path fill="#fff200" d="M32 8 38 24l17-4-12 13 14 10-18 1 3 17-10-14-12 13 4-17-18-2 15-9L9 19l17 5z"/>
  <path fill="#00e1ff" d="M12 12h40v9H12zM12 43h40v9H12z"/>
  <path fill="#101010" d="M7 7h50v8H15v42H7z" opacity=".18"/>
  <rect x="7" y="7" width="50" height="50" rx="7" fill="none" stroke="#101010" stroke-width="7"/>
  <text x="32" y="38" fill="#101010" font-family="Impact, Haettenschweiler, 'Arial Black', sans-serif" font-size="28" font-weight="900" text-anchor="middle" letter-spacing="0">BD</text>
  <text x="32" y="50" fill="#101010" font-family="'SFMono-Regular', Consolas, monospace" font-size="8" font-weight="900" text-anchor="middle" letter-spacing="0">FYI</text>
</svg>
